<svg width="185" height="185" viewBox="0 0 185 185" fill="none" xmlns="http://www.w3.org/2000/svg">
<g clip-path="url(#clip0_1_2)">
<path d="M0 92.5C0 41.4137 41.4137 0 92.5 0H135C162.614 0 185 22.3858 185 50V92.5C185 143.586 143.586 185 92.5 185C41.4137 185 0 143.586 0 92.5Z" fill="url(#paint0_linear_1_2)"/>
<path d="M52.4219 62.625C52.3594 62.9375 52.2656 64.1094 52.1406 66.1406C52.0469 68.1406 51.9219 70.75 51.7656 73.9688C51.6094 77.4688 51.3906 80.5938 51.1094 83.3438C50.8281 86.0625 50.5938 88.5312 50.4062 90.75C51.625 89.9062 52.9844 88.7812 54.4844 87.375C55.9844 85.9375 57.5156 84.3906 59.0781 82.7344C60.6719 81.0469 62.2344 79.3281 63.7656 77.5781C65.3281 75.8281 66.75 74.1875 68.0312 72.6562C69.3125 71.125 70.4219 69.7812 71.3594 68.625C72.2969 67.4688 72.9375 66.6562 73.2812 66.1875C73.9688 65.3125 74.7031 64.5 75.4844 63.75C76.2969 62.9688 77.0625 62.2812 77.7812 61.6875C78.5 61.0625 79.1562 60.5625 79.75 60.1875C80.375 59.7812 80.8438 59.5156 81.1562 59.3906C81.375 59.3281 81.5625 59.3125 81.7188 59.3438C81.875 59.375 82 59.4531 82.0938 59.5781C82.2188 59.6719 82.2812 59.8594 82.2812 60.1406C82.5 60.2969 82.5625 60.4219 82.4688 60.5156C82.375 60.6094 82.375 60.7031 82.4688 60.7969C82.5625 60.9219 82.6562 61.0469 82.75 61.1719C82.8438 61.2969 82.8125 61.5 82.6562 61.7812C82.4062 62.3438 82.1406 62.8438 81.8594 63.2812C81.5781 63.7188 81.1875 64.25 80.6875 64.875C80.1875 65.5 79.5 66.2969 78.625 67.2656C77.7812 68.2344 76.6406 69.5156 75.2031 71.1094C73.7969 72.6094 72.1719 74.4375 70.3281 76.5938C68.4844 78.75 66.5 80.9844 64.375 83.2969C62.2812 85.6094 60.0781 87.8906 57.7656 90.1406C55.4531 92.3906 53.125 94.3594 50.7812 96.0469C51.6875 96.2344 52.7031 96.5156 53.8281 96.8906C54.9844 97.2656 56.2188 97.7812 57.5312 98.4375C58.875 99.0938 60.2969 99.9062 61.7969 100.875C63.3281 101.844 64.9375 103.016 66.625 104.391C68.5625 106.016 70.4531 107.641 72.2969 109.266C74.1406 110.891 76 112.359 77.875 113.672C79.75 114.953 81.6719 116 83.6406 116.812C85.6094 117.625 87.6875 118.031 89.875 118.031C91.3125 118.031 92.8125 117.828 94.375 117.422C95.9688 117.016 97.6406 116.328 99.3906 115.359C99.7969 115.141 100.094 115.016 100.281 114.984C100.5 114.953 100.625 114.969 100.656 115.031C100.719 115.094 100.719 115.203 100.656 115.359C100.594 115.484 100.516 115.609 100.422 115.734C100.359 115.797 100.25 115.891 100.094 116.016C99.9375 116.109 99.75 116.234 99.5312 116.391C99.3438 116.516 99.1562 116.672 98.9688 116.859C98.7812 117.016 98.625 117.188 98.5 117.375C98.4062 117.438 98.4062 117.484 98.5 117.516C98.5938 117.516 98.6719 117.547 98.7344 117.609C98.8281 117.641 98.8594 117.719 98.8281 117.844C98.7969 117.938 98.5938 118.094 98.2188 118.312C98.0312 118.438 97.875 118.609 97.75 118.828C97.625 119.016 97.5 119.219 97.375 119.438C97.2812 119.625 97.1562 119.828 97 120.047C96.8438 120.234 96.6406 120.391 96.3906 120.516C95.8281 120.828 95.3906 121.234 95.0781 121.734C94.7969 122.203 94.5625 122.531 94.375 122.719C94.125 123 93.5781 123.391 92.7344 123.891C91.8906 124.391 90.875 124.875 89.6875 125.344C88.5312 125.781 87.25 126.125 85.8438 126.375C84.4375 126.656 83.0312 126.688 81.625 126.469C79.5 126.125 77.4844 125.312 75.5781 124.031C73.7031 122.75 71.875 121.25 70.0938 119.531C68.3438 117.781 66.6406 115.906 64.9844 113.906C63.3281 111.906 61.6875 110.016 60.0625 108.234C58.4375 106.453 56.7969 104.891 55.1406 103.547C53.5156 102.172 51.8438 101.234 50.125 100.734C50.125 101.984 50.1406 103.406 50.1719 105C50.2344 106.594 50.2812 108.25 50.3125 109.969C50.375 111.656 50.4219 113.328 50.4531 114.984C50.5156 116.609 50.5625 118.094 50.5938 119.438C50.6562 120.781 50.7031 121.906 50.7344 122.812C50.7969 123.719 50.8438 124.266 50.875 124.453C51 125.234 51 125.719 50.875 125.906C50.75 126.062 50.5 126.188 50.125 126.281C49.9688 126.344 49.7969 126.328 49.6094 126.234C49.4531 126.172 49.2812 126.219 49.0938 126.375C49 126.469 48.9375 126.578 48.9062 126.703C48.875 126.828 48.8281 126.953 48.7656 127.078C48.7031 127.234 48.5938 127.375 48.4375 127.5C48.3125 127.625 48.0781 127.734 47.7344 127.828C47.5781 127.891 47.4062 127.922 47.2188 127.922C47.0625 127.922 46.875 127.922 46.6562 127.922C46.4062 127.984 46.0781 127.891 45.6719 127.641C45.2969 127.422 44.9531 127.188 44.6406 126.938C44.4844 126.781 44.3281 126.562 44.1719 126.281C44.0156 126.031 43.8594 125.781 43.7031 125.531C43.5469 125.344 43.3594 125.203 43.1406 125.109C42.9531 125.016 42.8125 124.766 42.7188 124.359C42.375 122.922 42.1406 121.141 42.0156 119.016C41.9219 116.891 41.875 114.703 41.875 112.453C41.875 111.141 41.8906 109.844 41.9219 108.562C41.9531 107.25 41.9844 106.016 42.0156 104.859C42.0781 103.672 42.125 102.578 42.1562 101.578C42.2188 100.578 42.2812 99.7344 42.3438 99.0469L40.3281 98.8125C39.7656 98.8125 39.3594 98.7812 39.1094 98.7188C38.8594 98.6562 38.6562 98.5781 38.5 98.4844C38.375 98.3594 38.25 98.2188 38.125 98.0625C38 97.9062 37.8125 97.75 37.5625 97.5938C37.0625 97.25 36.7656 96.9219 36.6719 96.6094C36.5781 96.2656 36.875 95.8281 37.5625 95.2969C38.0312 94.8906 38.6719 94.6094 39.4844 94.4531C40.2969 94.2656 41.375 94 42.7188 93.6562C42.7812 92.1562 42.8438 90.4688 42.9062 88.5938C43 86.7188 43.1094 84.7812 43.2344 82.7812C43.3594 80.75 43.4844 78.7188 43.6094 76.6875C43.7656 74.625 43.9219 72.6719 44.0781 70.8281C44.2344 68.9844 44.4062 67.2969 44.5938 65.7656C44.7812 64.2344 44.9688 62.9688 45.1562 61.9688C45.2188 61.5312 45.2969 61.2188 45.3906 61.0312C45.5156 60.8438 45.6562 60.7031 45.8125 60.6094C46 60.5781 46.1719 60.6406 46.3281 60.7969C46.4844 60.9531 46.6875 60.9531 46.9375 60.7969C47.125 60.7031 47.2812 60.625 47.4062 60.5625C47.5312 60.4688 47.625 60.4219 47.6875 60.4219C47.7812 60.3906 47.8594 60.4219 47.9219 60.5156C47.9844 60.6094 48.0781 60.7812 48.2031 61.0312C48.2344 61.0625 48.2656 61.0625 48.2969 61.0312C48.3594 61 48.4219 60.9531 48.4844 60.8906L48.6719 60.7031C48.8906 60.6094 49.1719 60.5469 49.5156 60.5156C49.8594 60.4531 50.0625 60.5469 50.125 60.7969C50.1562 61.0156 50.2031 61.1094 50.2656 61.0781C50.3281 61.0156 50.4062 60.9219 50.5 60.7969C50.625 60.6719 50.7656 60.5469 50.9219 60.4219C51.0781 60.2969 51.2656 60.2656 51.4844 60.3281C51.9219 60.4844 52.25 60.75 52.4688 61.125C52.6875 61.4688 52.6719 61.9688 52.4219 62.625ZM146.641 64.8281C146.391 66.1094 145.781 67.375 144.812 68.625C143.875 69.8438 142.812 70.8906 141.625 71.7656C141.469 71.9219 141.156 72.0938 140.688 72.2812C140.25 72.4688 139.766 72.6719 139.234 72.8906C138.734 73.0781 138.234 73.25 137.734 73.4062C137.234 73.5625 136.844 73.6562 136.562 73.6875C136.312 73.75 136.109 73.7344 135.953 73.6406C135.828 73.5469 135.703 73.4375 135.578 73.3125C135.453 73.1875 135.297 73.0781 135.109 72.9844C134.953 72.8594 134.719 72.7969 134.406 72.7969C134.031 72.7969 133.797 72.7188 133.703 72.5625C133.641 72.375 133.688 72.0469 133.844 71.5781C133.906 71.4219 134.016 71.2031 134.172 70.9219C134.328 70.6406 134.578 70.2812 134.922 69.8438C135.172 69.5625 135.375 69.25 135.531 68.9062C135.719 68.5625 135.75 68.25 135.625 67.9688C135.531 67.6562 135.234 67.4062 134.734 67.2188C134.234 67.0312 133.453 66.9375 132.391 66.9375C131.297 66.9375 129.891 67.0781 128.172 67.3594C126.297 67.6094 124.344 68.0781 122.312 68.7656C120.312 69.4531 118.359 70.25 116.453 71.1562C114.578 72.0625 112.844 73.0312 111.25 74.0625C109.656 75.0938 108.344 76.1094 107.312 77.1094C106.312 78.0781 105.672 79 105.391 79.875C105.109 80.7188 105.344 81.4062 106.094 81.9375C106.75 82.4062 107.75 82.8125 109.094 83.1562C110.438 83.4688 111.984 83.7656 113.734 84.0469C115.484 84.2969 117.359 84.5781 119.359 84.8906C121.359 85.1719 123.344 85.5156 125.312 85.9219C127.312 86.3281 129.203 86.8281 130.984 87.4219C132.797 88.0156 134.391 88.75 135.766 89.625C136.734 90.2812 137.547 90.9062 138.203 91.5C138.859 92.0938 139.391 92.6875 139.797 93.2812C140.203 93.8438 140.531 94.4062 140.781 94.9688C141.031 95.5 141.25 96.0469 141.438 96.6094C141.562 96.9531 141.781 97.3438 142.094 97.7812C142.438 98.1875 142.797 98.6875 143.172 99.2812C143.547 99.875 143.891 100.562 144.203 101.344C144.516 102.094 144.719 102.984 144.812 104.016C144.938 106.078 144.516 108.031 143.547 109.875C142.609 111.719 141.375 113.422 139.844 114.984C138.344 116.547 136.672 117.953 134.828 119.203C132.984 120.422 131.219 121.438 129.531 122.25C128.062 122.969 126.5 123.641 124.844 124.266C123.188 124.891 121.484 125.438 119.734 125.906C117.984 126.344 116.203 126.688 114.391 126.938C112.609 127.219 110.844 127.359 109.094 127.359C106.188 127.359 103.453 126.953 100.891 126.141C98.3594 125.359 96.1562 124.031 94.2812 122.156C93.375 121.188 92.7188 120.219 92.3125 119.25C91.9062 118.25 91.7031 117.266 91.7031 116.297C91.7031 115.141 91.9375 114.016 92.4062 112.922C92.875 111.828 93.4844 110.797 94.2344 109.828C94.9844 108.859 95.8125 108 96.7188 107.25C97.625 106.469 98.5156 105.844 99.3906 105.375C100.609 104.688 101.875 104.031 103.188 103.406C104.531 102.75 105.875 102.172 107.219 101.672C108.562 101.141 109.906 100.703 111.25 100.359C112.594 100.016 113.891 99.7969 115.141 99.7031C115.672 99.6406 116.344 99.5781 117.156 99.5156C117.969 99.4531 118.734 99.4219 119.453 99.4219C119.922 99.4219 120.312 99.5469 120.625 99.7969C120.938 100.047 121.062 100.266 121 100.453C120.844 100.797 120.562 100.969 120.156 100.969C119.781 100.969 119.328 101.031 118.797 101.156C118.203 101.312 117.609 101.422 117.016 101.484C116.422 101.547 115.891 101.656 115.422 101.812C111.859 102.625 108.844 103.656 106.375 104.906C103.938 106.156 101.984 107.422 100.516 108.703C99.0781 109.984 98.0938 111.203 97.5625 112.359C97.0312 113.484 96.875 114.344 97.0938 114.938C97.4062 115.781 97.9844 116.438 98.8281 116.906C99.6719 117.375 100.625 117.719 101.688 117.938C102.75 118.125 103.828 118.234 104.922 118.266C106.016 118.297 106.953 118.281 107.734 118.219C109.547 118.125 111.562 117.859 113.781 117.422C116.031 116.984 118.297 116.406 120.578 115.688C122.891 114.969 125.141 114.125 127.328 113.156C129.516 112.156 131.453 111.078 133.141 109.922C134.828 108.734 136.188 107.469 137.219 106.125C138.25 104.75 138.766 103.312 138.766 101.812C138.766 101.312 138.688 100.828 138.531 100.359C138.406 99.8594 138.219 99.3438 137.969 98.8125C137.5 97.9062 136.609 97.1406 135.297 96.5156C133.984 95.8594 132.406 95.3125 130.562 94.875C128.75 94.4062 126.766 94 124.609 93.6562C122.484 93.2812 120.375 92.9062 118.281 92.5312C116.219 92.1562 114.25 91.7344 112.375 91.2656C110.5 90.7969 108.922 90.2188 107.641 89.5312C106.203 88.75 105.141 87.9844 104.453 87.2344C103.797 86.4531 103.422 85.4844 103.328 84.3281C103.297 84.2031 103.203 83.9844 103.047 83.6719C102.891 83.3594 102.703 83.0312 102.484 82.6875C102.297 82.3438 102.109 82.0156 101.922 81.7031C101.734 81.3906 101.594 81.1406 101.5 80.9531C101 80.0469 100.75 79.0625 100.75 78C100.75 76.8125 101.016 75.5938 101.547 74.3438C102.109 73.0938 102.797 72.0156 103.609 71.1094C105.109 69.3906 107.078 67.7969 109.516 66.3281C111.984 64.8594 114.672 63.5781 117.578 62.4844C120.484 61.3906 123.469 60.5156 126.531 59.8594C129.625 59.1719 132.547 58.7812 135.297 58.6875C136.422 58.6562 137.688 58.7344 139.094 58.9219C140.5 59.1094 141.797 59.4531 142.984 59.9531C144.203 60.4219 145.172 61.0625 145.891 61.875C146.609 62.6562 146.859 63.6406 146.641 64.8281Z" fill="black"/>
</g>
<defs>
<linearGradient id="paint0_linear_1_2" x1="0" y1="92" x2="185" y2="92" gradientUnits="userSpaceOnUse">
<stop stop-color="#FFDB6E"/>
<stop offset="1" stop-color="#FFBC5E"/>
</linearGradient>
<clipPath id="clip0_1_2">
<rect width="185" height="185" fill="white"/>
</clipPath>
</defs>
</svg>
